#!OML:ASF H:\Pregnant\Project 1\Capture day 1\Session 1\femalepreg.ASF
:FULLY-SPECIFIED
:DEGREES
1234
root 1.39861 2.30229 19.8024 39.5243 -87.4977 -66.855
lowerback 33.2301 6.10395 -2.75676
upperback 11.3885 5.39597 -1.39153
thorax -4.50981 2.02054 -1.73136
lowerneck -18.9875 0.670672 3.52253
upperneck 34.9167 -4.46966 7.93832
head 15.7725 -0.618454 1.84182
rclavicle 4.37326e-015 1.90833e-014
rhumerus 20.3997 29.4753 -46.6425
rradius 44.7223
rwrist 9.87803
rhand 16.2048 -7.27471
rfingers 7.12502
rthumb 220.985 -212.196
lclavicle 4.37326e-015 1.90833e-014
lhumerus -38.7868 8.93726 50.7561
lradius 26.6666
lwrist 41.8444
lhand 128.695 184.51
lfingers 7.12502
lthumb 156.159 -146.95
rfemur -140.646 -21.6035 65.7022
rtibia 131.396
rfoot 22.8611 11.2528
rtoes 9.28148
lfemur -138.075 16.0965 -74.8604
ltibia 140.005
lfoot 15.6744 -1.63139
ltoes 24.5378
1235
root 1.3884 2.3065 19.8011 40.7469 -87.5976 -67.9214
lowerback 33.3043 6.00515 -2.78104
upperback 11.3362 5.25976 -1.39471
thorax -4.59623 1.95436 -1.68304
lowerneck -19.0949 0.743881 3.62732
upperneck 34.941 -4.40821 7.92113
head 15.8066 -0.578163 1.82907
rclavicle -7.4743e-014 5.88403e-014
rhumerus 19.7914 29.3568 -46.2852
rradius 46.4809
rwrist 9.81279
rhand 15.8658 -7.20918
rfingers 7.12502
rthumb 220.666 -212.231
lclavicle -7.4743e-014 5.88403e-014
lhumerus -39.6297 9.63984 51.309
lradius 27.1521
lwrist 42.1966
lhand 127.769 183.011
lfingers 7.12502
lthumb 155.271 -148.567
rfemur -140.798 -21.4921 65.8656
rtibia 131.427
rfoot 22.8893 11.2495
rtoes 9.38746
lfemur -138.251 15.9552 -74.8429
ltibia 140.086
lfoot 15.6889 -1.67777
ltoes 24.5929
1236
root 1.37797 2.31093 19.7998 42.0069 -87.6943 -69.0282
lowerback 33.3686 5.91165 -2.82332
upperback 11.2844 5.12612 -1.38988
thorax -4.68032 1.88908 -1.61706
lowerneck -19.2012 0.816041 3.71301
upperneck 34.9692 -4.34402 7.90961
head 15.8428 -0.538474 1.82286
rclavicle 4.49253e-014 -1.59028e-015
rhumerus 19.0942 29.1465 -45.976
rradius 48.3094
rwrist 9.72052
rhand 15.5501 -7.14413
rfingers 7.12502
rthumb 220.369 -212.258
lclavicle 4.49253e-014 -1.59028e-015
lhumerus -40.4584 10.2789 51.8944
lradius 27.5353
lwrist 42.4627
lhand 126.89 181.483
lfingers 7.12502
lthumb 154.429 -150.213
rfemur -140.946 -21.3846 66.0216
rtibia 131.46
rfoot 22.9095 11.2586
rtoes 9.44395
lfemur -138.417 15.8129 -74.8204
ltibia 140.166
lfoot 15.7021 -1.72246
ltoes 24.6633
1237
root 1.36744 2.31566 19.7985 43.2301 -87.7882 -70.106
lowerback 33.4285 5.82415 -2.88161
upperback 11.2334 4.99584 -1.37857
thorax -4.76313 1.82508 -1.53658
lowerneck -19.3053 0.885748 3.78266
upperneck 34.9984 -4.27994 7.90428
head 15.8794 -0.500185 1.82223
rclavicle 2.90226e-014 -1.59028e-014
rhumerus 18.2996 28.8298 -45.7261
rradius 50.2004
rwrist 9.58573
rhand 15.2804 -7.08397
rfingers 7.12502
rthumb 220.116 -212.275
lclavicle 2.90226e-014 -1.59028e-014
lhumerus -41.2653 10.8461 52.5137
lradius 27.8092
lwrist 42.6765
lhand 126.06 179.974
lfingers 7.12502
lthumb 153.634 -151.839
rfemur -141.088 -21.2893 66.17
rtibia 131.497
rfoot 22.9197 11.2903
rtoes 9.42674
lfemur -138.564 15.6776 -74.7973
ltibia 140.243
lfoot 15.7145 -1.76925
ltoes 24.7504
1238
root 1.35689 2.32071 19.7971 44.3677 -87.8785 -71.1093
lowerback 33.4876 5.74253 -2.95348
upperback 11.1837 4.86904 -1.36199
thorax -4.84517 1.76244 -1.44434
lowerneck -19.4064 0.952365 3.83861
upperneck 35.0257 -4.21732 7.90545
head 15.9148 -0.463582 1.82654
rclavicle 4.25399e-014 -1.11319e-014
rhumerus 17.4044 28.395 -45.5424
rradius 52.1485
rwrist 9.39935
rhand 15.1094 -7.05723
rfingers 7.12502
rthumb 219.955 -212.297
lclavicle 4.25399e-014 -1.11319e-014
lhumerus -42.0459 11.3398 53.1659
lradius 27.9705
lwrist 42.8762
lhand 125.285 178.55
lfingers 7.12502
lthumb 152.892 -153.376
rfemur -141.224 -21.2111 66.3114
rtibia 131.537
rfoot 22.9184 11.3562
rtoes 9.30132
lfemur -138.687 15.5539 -74.7753
ltibia 140.316
lfoot 15.7269 -1.82189
ltoes 24.8565
1239
root 1.34633 2.326 19.7957 45.4055 -87.9646 -72.0228
lowerback 33.5448 5.66615 -3.03924
upperback 11.1354 4.74504 -1.33865
thorax -4.92592 1.70084 -1.33834
lowerneck -19.5032 1.01618 3.87906
upperneck 35.049 -4.15406 7.91221
head 15.9476 -0.428197 1.83604
rclavicle -3.93594e-014 3.18055e-014
rhumerus 16.4143 27.8409 -45.42
rradius 54.1433
rwrist 9.12983
rhand 15.039 -7.06564
rfingers 7.12502
rthumb 219.888 -212.325
lclavicle -3.93594e-014 3.18055e-014
lhumerus -42.8006 11.7667 53.8507
lradius 28.0217
lwrist 43.1039
lhand 124.569 177.292
lfingers 7.12502
lthumb 152.208 -154.743
rfemur -141.354 -21.1481 66.4466
rtibia 131.581
rfoot 22.906 11.4657
rtoes 9.03056
lfemur -138.787 15.4377 -74.7517
ltibia 140.387
lfoot 15.7395 -1.87922
ltoes 24.9803
1240
root 1.33573 2.33131 19.794 46.3705 -88.045 -72.8689
lowerback 33.5954 5.59409 -3.13929
upperback 11.0881 4.62318 -1.30682
thorax -5.00431 1.64006 -1.21617
lowerneck -19.5936 1.07787 3.90146
upperneck 35.0655 -4.08728 7.92428
head 15.9757 -0.393301 1.85149
rclavicle 3.97569e-015 -4.29375e-014
rhumerus 15.3386 27.1718 -45.3482
rradius 56.1747
rwrist 8.74717
rhand 15.0683 -7.12007
rfingers 7.12502
rthumb 219.916 -212.371
lclavicle 3.97569e-015 -4.29375e-014
lhumerus -43.5314 12.1322 54.5678
lradius 27.971
lwrist 43.4076
lhand 123.919 176.281
lfingers 7.12502
lthumb 151.587 -155.855
rfemur -141.482 -21.0917 66.5762
rtibia 131.629
rfoot 22.8873 11.6229
rtoes 8.60169
lfemur -138.871 15.318 -74.7203
ltibia 140.457
lfoot 15.7534 -1.93665
ltoes 25.1131
1241
root 1.32502 2.33639 19.792 47.2935 -88.1185 -73.6727
lowerback 33.6345 5.52517 -3.25361
upperback 11.041 4.50269 -1.26538
thorax -5.07918 1.57987 -1.07619
lowerneck -19.6763 1.13836 3.90442
upperneck 35.0736 -4.01411 7.94083
head 15.9975 -0.358059 1.87323
rclavicle 7.95139e-015 1.59028e-015
rhumerus 14.1887 26.3996 -45.3126
rradius 58.2265
rwrist 8.19899
rhand 15.1295 -7.21068
rfingers 7.12502
rthumb 219.974 -212.445
lclavicle 7.95139e-015 1.59028e-015
lhumerus -44.2403 12.443 55.316
lradius 27.8309
lwrist 43.8308
lhand 123.338 175.596
lfingers 7.12502
lthumb 151.031 -156.635
rfemur -141.609 -21.0318 66.7002
rtibia 131.681
rfoot 22.8686 11.8227
rtoes 8.03748
lfemur -138.949 15.1822 -74.6735
ltibia 140.529
lfoot 15.7704 -1.98678
ltoes 25.2464
1242
root 1.3141 2.34115 19.7898 48.2186 -88.1842 -74.4759
lowerback 33.6584 5.45763 -3.3774
upperback 10.9945 4.38308 -1.21577
thorax -5.1486 1.52024 -0.922143
lowerneck -19.7502 1.19829 3.88967
upperneck 35.072 -3.9338 7.96141
head 16.0123 -0.322021 1.90086
rclavicle 1.03368e-014 1.74931e-014
rhumerus 12.9736 25.5296 -45.3044
rradius 60.2811
rwrist 7.46209
rhand 15.1885 -7.32936
rfingers 7.12502
rthumb 220.029 -212.547
lclavicle 1.03368e-014 1.74931e-014
lhumerus -44.9272 12.7005 56.0937
lradius 27.6176
lwrist 44.4107
lhand 122.828 175.291
lfingers 7.12502
lthumb 150.544 -157.025
rfemur -141.739 -20.9641 66.821
rtibia 131.735
rfoot 22.8591 12.0548
rtoes 7.40562
lfemur -139.027 15.0228 -74.6072
ltibia 140.603
lfoot 15.7897 -2.02436
ltoes 25.3672
1243
root 1.3029 2.3454 19.7873 49.1502 -88.2419 -75.2762
lowerback 33.6612 5.39019 -3.50776
upperback 10.9476 4.26421 -1.16042
thorax -5.2107 1.46139 -0.757774
lowerneck -19.8158 1.25819 3.86216
upperneck 35.0608 -3.84694 7.98468
head 16.0199 -0.28494 1.93278
rclavicle 2.46493e-014 -3.33958e-014
rhumerus 11.702 24.5613 -45.3193
rradius 62.3166
rwrist 6.53353
rhand 15.2258 -7.45851
rfingers 7.12502
rthumb 220.064 -212.665
lclavicle 2.46493e-014 -3.33958e-014
lhumerus -45.5912 12.9079 56.8959
lradius 27.3482
lwrist 45.1689
lhand 122.389 175.423
lfingers 7.12502
lthumb 150.125 -156.967
rfemur -141.875 -20.8789 66.9375
rtibia 131.793
rfoot 22.8669 12.2941
rtoes 6.80221
lfemur -139.112 14.8275 -74.516
ltibia 140.682
lfoot 15.8127 -2.04142
ltoes 25.4606
1244
root 1.29155 2.34939 19.7848 50.171 -88.2944 -76.1637
lowerback 33.6491 5.32457 -3.64217
upperback 10.9021 4.14808 -1.10121
thorax -5.26582 1.4041 -0.587335
lowerneck -19.875 1.31856 3.82829
upperneck 35.0422 -3.75444 8.00718
head 16.022 -0.2467 1.96627
rclavicle 2.18663e-014 6.36111e-015
rhumerus 10.3831 23.4861 -45.3572
rradius 64.3107
rwrist 5.44468
rhand 15.2776 -7.59243
rfingers 7.12502
rthumb 220.113 -212.784
lclavicle 2.18663e-014 6.36111e-015
lhumerus -46.2316 13.0724 57.7156
lradius 27.0388
lwrist 46.1112
lhand 122.022 176.017
lfingers 7.12502
lthumb 149.775 -156.436
rfemur -142.007 -20.783 67.0498
rtibia 131.851
rfoot 22.8928 12.5188
rtoes 6.32561
lfemur -139.203 14.6158 -74.4084
ltibia 140.764
lfoot 15.8376 -2.04747
ltoes 25.5221
